<svg width="1158" height="1281" viewBox="0 0 1158 1281" fill="none" xmlns="http://www.w3.org/2000/svg">
<path d="M578.966 1280.94C898.72 1280.94 1157.93 994.188 1157.93 640.468C1157.93 286.747 898.72 0 578.966 0C259.212 0 0 286.747 0 640.468C0 994.188 259.212 1280.94 578.966 1280.94Z" fill="#DDE1EC"/>
<path d="M578.966 708.362C612.862 708.362 640.341 677.965 640.341 640.468C640.341 602.971 612.862 572.574 578.966 572.574C545.07 572.574 517.592 602.971 517.592 640.468C517.592 677.965 545.07 708.362 578.966 708.362Z" fill="#535461"/>
<path opacity="0.3" d="M595.333 113.157H562.6V678.941H595.333V113.157Z" fill="#535461"/>
<path d="M1076.1 617.837H613.745V663.099H1076.1V617.837Z" fill="#535461"/>
<path d="M578.371 617.078L287.452 448.547L268.471 488.645L559.389 657.175L578.371 617.078Z" fill="#535461"/>
</svg>
